<?xml version="1.0" encoding="UTF-8"?><svg id="Layer_1" xmlns="http://www.w3.org/2000/svg" viewBox="0 0 3000 3000"><defs><style>.cls-1{stroke:#fff;stroke-linecap:round;stroke-linejoin:round;stroke-width:286.84px;}.cls-2{fill:#fff;}</style></defs><ellipse class="cls-2" cx="1473.59" cy="1707.91" rx="1028.42" ry="1127.78"/><path class="cls-1" d="M2749.23,1337.92c-4.37-4.77-9.59-7.69-13.78-10.03-1.16-.65-2.33-1.3-3.36-1.92-1.01-.64-1.88-1.22-2.4-1.75-16.09-15.96-67.97-93.56-77.1-115.32-6.21-14.79-10.61-34.45-14.87-53.45-3.07-13.7-6.23-27.87-10.12-40.4-34.02-109.62-87.35-219.88-158.52-327.73-70.6-106.98-154.78-205.63-250.24-293.2-98.53-90.41-204.08-164.33-313.7-219.69-116.73-58.96-234.23-94.77-349.22-106.41-211.28-21.4-410.6,50.14-577.24,207.01l-12.67-14.48-1.22-.86c-16.23-11.35-36.22-12.33-52.14-2.57-12.92,7.92-20.96,21.13-22.6,36.18-55.79,2.93-114.3,19.47-174.09,49.22-53.9,26.84-108.6,64.61-158.19,109.26-80.61,72.6-143.31,155.52-191.68,253.51-43.68,88.46-74.81,187.79-95.2,303.65-22.2,126.18-34.78,246.97-37.39,359.05-3.23,138.74,9.24,259.23,37.06,358.15,2.8,9.94,13.26,45.07,30.5,79.76,19.6,39.47,40.68,63.14,62.64,70.38,11.13,3.67,28.38,4.95,47.32-9.76,2.41-1.87,4.44-3.91,6.18-5.98,5.35,45.64,18.15,89.33,38.14,130.21,22.49,45.97,54.75,89.73,95.89,130.05,1.17,1.14,3.81,3.74,5.32,5.36-.02,3.43.22,7.82,2.03,15.1,24.98,100.82,86.91,194.63,134.48,255.59,62.58,80.21,136.99,151.1,209.52,199.62,105.93,70.87,223.73,115.23,350.16,131.83,37.46,4.91,75.3,7.38,113.43,7.37,82.28,0,165.87-11.44,249.67-34.24,144.51-39.31,284.29-111.85,404.26-209.76,121.6-99.25,220.04-222.46,284.67-356.3,4.72-9.76,9.24-24.67,13.6-39.11,3.52-11.62,7.91-26.07,10.51-30.39,2.66-3.35,16.22-13.14,24.34-19,8.51-6.15,15.86-11.45,20.18-15.39,75.19-68.65,125.69-147.95,150.07-235.72,4.44-15.94,6.99-33.03,9.47-49.55,2.51-16.74,4.88-32.54,8.92-45.88,2.54-8.36,8.52-19.75,14.29-30.76,5.14-9.81,10.46-19.96,14.07-29.18,5.36-13.76,9.36-26.24,13.23-38.3,7.85-24.45,14.62-45.58,30.21-69.03,16.11-24.23,17.16-53.89,18.18-82.56.46-13.08.9-25.5,2.75-36.77,8.19-7.11,21.26-15.91,35-25.16,41.05-27.63,92.14-62.03,97.02-103.05,1.99-16.83-3.85-32.85-17.39-47.62ZM1069.29,1474.79c22.99-39.26,46.75-79.86,65.98-122.34,5.95-13.16,10.95-27.08,15.78-40.53,1.99-5.54,3.93-10.95,5.9-16.23,21.65,93.14,50.45,176.89,85.74,249.36,2.27,4.67,56.18,114.61,96.81,138.46,16.74,9.84,34.46,11.05,49.87,3.39,16.78-8.32,28.33-26.2,30.91-47.84,2.4-20.11.73-44.18-.87-67.43-1.12-16.29-2.29-33.13-1.94-47.72.48-20.55,2.14-46.78,3.24-64.13,4.17-65.64,13.94-132.21,23.4-196.6.12-.89.26-1.77.39-2.66,48.47,55.82,102.26,111.08,166.7,152.11-51.4,96.19-84.86,197.1-99.57,300.27-89.14,37.59-186.13,55.86-280.59,72.76-11.22-93.86-51.89-187.02-112.73-257.43-3.08-3.57-9.91-10.2-18.56-18.6-9.25-8.97-25.08-24.34-31.91-32.3l1.47-2.51ZM543.13,2055.56c-24.06-47.76-36.33-101.92-35.66-157.12,65.54-24.59,127.51-53.04,185.39-84.97-24.43,17.41-48.92,36.15-54.8,43.68-14.99,19.19-15.7,42.69-1.82,59.88,9.21,11.4,22.61,17.43,36.83,17.43,7.88,0,16.02-1.85,23.84-5.65,9.04-4.39,100.95-69.24,108.22-77.34,13.42-14.95,16.79-35.32,8.81-53.18-7.56-16.96-23.94-27.5-42.72-27.5h-.02c-2.77,0-5.41.31-7.91.82,97.29-62.25,180.74-135.16,247.4-216.69,46.95,40.06,83.32,93.67,105.55,155.78,22.63,63.22,29.96,132.52,21.21,200.43-8.02,62.24-29.51,120.7-62.14,169.07-35.33,52.38-82.02,91.55-138.76,116.45-42.07,18.46-85.32,27.62-127.7,27.62-57.46,0-113.31-16.84-162.33-50.1-43.38-29.45-79.14-70.46-103.4-118.6ZM2156.64,2297.53c-46.35,72.81-103.09,139.43-168.65,198.01-64.83,57.94-137.12,106.96-214.87,145.73-160.62,80.1-335.74,112.46-506.4,93.55-126.69-14.04-250.93-66.87-359.28-152.78-51.91-41.16-98.69-88.81-139.02-141.61-34.5-45.18-63.64-93.29-86.86-143.37,35.15,12.02,71.29,19.03,107.8,20.86,45.64,2.29,92.1-3.47,138.09-17.13,45.66-13.56,88.43-35.21,127.14-64.34,37.03-27.86,69.62-61.99,96.87-101.44,51.59-74.69,81.18-165.13,83.87-255.88,47.21-4.34,95.72-15.57,138.91-25.57,49.59-11.47,93.47-23.55,133.57-36.73,3.45,82.57,22.86,161.82,56.51,230.18,19.15,38.9,42.83,74.1,70.36,104.64,29.16,32.32,62.83,59.59,100.07,81.05,72.47,41.76,154.49,61.57,243.76,58.91,68.24-2.04,139.68-17.71,208.65-45.58l-30.51,51.51ZM2444.03,1771.61c-1.88,6.57-3.83,13.36-4.74,22.44-1.06,10.49-.82,18.95-.57,27.14.37,12.54.7,23.38-3.62,40.64-19.1,76.41-65.92,148.1-135.39,207.29-65.75,56.03-148.6,97.23-233.27,116.01-71.39,15.84-142.1,15.35-204.47-1.38-68.42-18.35-125.37-55.1-169.25-109.21-64.18-79.15-95.03-184.82-89.18-305.57,4.97-102.93,36.15-210.85,87.97-305.17,6.57,3.14,13.41,6.82,20.51,10.64,25.63,13.8,54.67,29.43,84.99,25.67,31.96-3.97,52.46-27.87,60.93-71.07,6.66-34,5.29-74.39,4.09-110.02-.57-17-1.14-33.26-.55-45.58,1.42.49,2.92.88,4.52,1.08,15.14,1.96,25.75-3.84,33.5-8.08,2.49-1.36,5.05-2.76,6.9-3.35,8.98,3.63,41.07,20.79,60.75,31.31,17.7,9.46,32.98,17.63,39.07,20.38,72.78,32.9,150.15,55.16,209.43,70.89,7.66,2.03,18.28,4.06,29.54,6.22,20.93,4.01,52.56,10.07,61.93,16.79,4.63,3.32,13.93,14.95,19.49,21.9,1.6,1.99,3.07,3.81,4.31,5.34,68.64,83.53,113.72,198.96,117.65,301.26.62,16.35-1.88,25.14-4.53,34.42Z"/><path class="cls-1" d="M1525.73,2547.21c-44.14,50.08-96.96,76.3-153.3,76.3-3.46,0-6.92-.1-10.4-.29-67.6-3.85-134-45.67-182.17-114.74l-.48-.68c-7.69-11.02-15.64-22.42-18.62-35.12-3.85-16.45,1.55-31,16.06-43.28,11.63-9.84,23.41-14.1,35.02-12.7,20.24,2.47,33.47,20.76,45.15,36.91,3.82,5.28,7.44,10.28,10.83,14,37.05,40.84,72.86,61.49,106.52,61.49,2.21,0,4.41-.09,6.6-.27,33.48-2.71,65.06-26.63,93.84-71.07,2.7-4.17,5.98-10.69,9.46-17.61,11.35-22.58,24.22-48.18,44.02-52.76,3.9-.9,7.88-1.34,11.85-1.34,11.5,0,22.91,3.7,32.04,10.64,11.06,8.41,17.49,20.51,18.09,34.07,1.31,29.84-54.67,105.28-64.51,116.45Z"/><path class="cls-1" d="M2092.13,1730.79c-10.75,8.81-25.04,11.29-39.65,11.29-10.2,0-20.55-1.21-29.98-2.31-6.4-.75-12.45-1.45-17.39-1.65-8.4-.32-18.27-.31-28.73-.31-23.11.04-49.3.06-68.14-3.75-22-4.44-36.87-23.66-36.18-46.74.61-20.36,14.2-42.72,43.19-46.78l1.11-.16,1.14.05,150.02,6.77.98.21c19.67,4.14,35.32,18.82,39.85,37.39,4.17,17.07-1.89,34.27-16.2,45.99Z"/><path d="M2749.23,1337.92c-4.37-4.77-9.59-7.69-13.78-10.03-1.16-.65-2.33-1.3-3.36-1.92-1.01-.64-1.88-1.22-2.4-1.75-16.09-15.96-67.97-93.56-77.1-115.32-6.21-14.79-10.61-34.45-14.87-53.45-3.07-13.7-6.23-27.87-10.12-40.4-34.02-109.62-87.35-219.88-158.52-327.73-70.6-106.98-154.78-205.63-250.24-293.2-98.53-90.41-204.08-164.33-313.7-219.69-116.73-58.96-234.23-94.77-349.22-106.41-211.28-21.4-410.6,50.14-577.24,207.01l-12.67-14.48-1.22-.86c-16.23-11.35-36.22-12.33-52.14-2.57-12.92,7.92-20.96,21.13-22.6,36.18-55.79,2.93-114.3,19.47-174.09,49.22-53.9,26.84-108.6,64.61-158.19,109.26-80.61,72.6-143.31,155.52-191.68,253.51-43.68,88.46-74.81,187.79-95.2,303.65-22.2,126.18-34.78,246.97-37.39,359.05-3.23,138.74,9.24,259.23,37.06,358.15,2.8,9.94,13.26,45.07,30.5,79.76,19.6,39.47,40.68,63.14,62.64,70.38,11.13,3.67,28.38,4.95,47.32-9.76,2.41-1.87,4.44-3.91,6.18-5.98,5.35,45.64,18.15,89.33,38.14,130.21,22.49,45.97,54.75,89.73,95.89,130.05,1.17,1.14,3.81,3.74,5.32,5.36-.02,3.43.22,7.82,2.03,15.1,24.98,100.82,86.91,194.63,134.48,255.59,62.58,80.21,136.99,151.1,209.52,199.62,105.93,70.87,223.73,115.23,350.16,131.83,37.46,4.91,75.3,7.38,113.43,7.37,82.28,0,165.87-11.44,249.67-34.24,144.51-39.31,284.29-111.85,404.26-209.76,121.6-99.25,220.04-222.46,284.67-356.3,4.72-9.76,9.24-24.67,13.6-39.11,3.52-11.62,7.91-26.07,10.51-30.39,2.66-3.35,16.22-13.14,24.34-19,8.51-6.15,15.86-11.45,20.18-15.39,75.19-68.65,125.69-147.95,150.07-235.72,4.44-15.94,6.99-33.03,9.47-49.55,2.51-16.74,4.88-32.54,8.92-45.88,2.54-8.36,8.52-19.75,14.29-30.76,5.14-9.81,10.46-19.96,14.07-29.18,5.36-13.76,9.36-26.24,13.23-38.3,7.85-24.45,14.62-45.58,30.21-69.03,16.11-24.23,17.16-53.89,18.18-82.56.46-13.08.9-25.5,2.75-36.77,8.19-7.11,21.26-15.91,35-25.16,41.05-27.63,92.14-62.03,97.02-103.05,1.99-16.83-3.85-32.85-17.39-47.62ZM1069.29,1474.79c22.99-39.26,46.75-79.86,65.98-122.34,5.95-13.16,10.95-27.08,15.78-40.53,1.99-5.54,3.93-10.95,5.9-16.23,21.65,93.14,50.45,176.89,85.74,249.36,2.27,4.67,56.18,114.61,96.81,138.46,16.74,9.84,34.46,11.05,49.87,3.39,16.78-8.32,28.33-26.2,30.91-47.84,2.4-20.11.73-44.18-.87-67.43-1.12-16.29-2.29-33.13-1.94-47.72.48-20.55,2.14-46.78,3.24-64.13,4.17-65.64,13.94-132.21,23.4-196.6.12-.89.26-1.77.39-2.66,48.47,55.82,102.26,111.08,166.7,152.11-51.4,96.19-84.86,197.1-99.57,300.27-89.14,37.59-186.13,55.86-280.59,72.76-11.22-93.86-51.89-187.02-112.73-257.43-3.08-3.57-9.91-10.2-18.56-18.6-9.25-8.97-25.08-24.34-31.91-32.3l1.47-2.51ZM543.13,2055.56c-24.06-47.76-36.33-101.92-35.66-157.12,65.54-24.59,127.51-53.04,185.39-84.97-24.43,17.41-48.92,36.15-54.8,43.68-14.99,19.19-15.7,42.69-1.82,59.88,9.21,11.4,22.61,17.43,36.83,17.43,7.88,0,16.02-1.85,23.84-5.65,9.04-4.39,100.95-69.24,108.22-77.34,13.42-14.95,16.79-35.32,8.81-53.18-7.56-16.96-23.94-27.5-42.72-27.5h-.02c-2.77,0-5.41.31-7.91.82,97.29-62.25,180.74-135.16,247.4-216.69,46.95,40.06,83.32,93.67,105.55,155.78,22.63,63.22,29.96,132.52,21.21,200.43-8.02,62.24-29.51,120.7-62.14,169.07-35.33,52.38-82.02,91.55-138.76,116.45-42.07,18.46-85.32,27.62-127.7,27.62-57.46,0-113.31-16.84-162.33-50.1-43.38-29.45-79.14-70.46-103.4-118.6ZM2156.64,2297.53c-46.35,72.81-103.09,139.43-168.65,198.01-64.83,57.94-137.12,106.96-214.87,145.73-160.62,80.1-335.74,112.46-506.4,93.55-126.69-14.04-250.93-66.87-359.28-152.78-51.91-41.16-98.69-88.81-139.02-141.61-34.5-45.18-63.64-93.29-86.86-143.37,35.15,12.02,71.29,19.03,107.8,20.86,45.64,2.29,92.1-3.47,138.09-17.13,45.66-13.56,88.43-35.21,127.14-64.34,37.03-27.86,69.62-61.99,96.87-101.44,51.59-74.69,81.18-165.13,83.87-255.88,47.21-4.34,95.72-15.57,138.91-25.57,49.59-11.47,93.47-23.55,133.57-36.73,3.45,82.57,22.86,161.82,56.51,230.18,19.15,38.9,42.83,74.1,70.36,104.64,29.16,32.32,62.83,59.59,100.07,81.05,72.47,41.76,154.49,61.57,243.76,58.91,68.24-2.04,139.68-17.71,208.65-45.58l-30.51,51.51ZM2444.03,1771.61c-1.88,6.57-3.83,13.36-4.74,22.44-1.06,10.49-.82,18.95-.57,27.14.37,12.54.7,23.38-3.62,40.64-19.1,76.41-65.92,148.1-135.39,207.29-65.75,56.03-148.6,97.23-233.27,116.01-71.39,15.84-142.1,15.35-204.47-1.38-68.42-18.35-125.37-55.1-169.25-109.21-64.18-79.15-95.03-184.82-89.18-305.57,4.97-102.93,36.15-210.85,87.97-305.17,6.57,3.14,13.41,6.82,20.51,10.64,25.63,13.8,54.67,29.43,84.99,25.67,31.96-3.97,52.46-27.87,60.93-71.07,6.66-34,5.29-74.39,4.09-110.02-.57-17-1.14-33.26-.55-45.58,1.42.49,2.92.88,4.52,1.08,15.14,1.96,25.75-3.84,33.5-8.08,2.49-1.36,5.05-2.76,6.9-3.35,8.98,3.63,41.07,20.79,60.75,31.31,17.7,9.46,32.98,17.63,39.07,20.38,72.78,32.9,150.15,55.16,209.43,70.89,7.66,2.03,18.28,4.06,29.54,6.22,20.93,4.01,52.56,10.07,61.93,16.79,4.63,3.32,13.93,14.95,19.49,21.9,1.6,1.99,3.07,3.81,4.31,5.34,68.64,83.53,113.72,198.96,117.65,301.26.62,16.35-1.88,25.14-4.53,34.42Z"/><path d="M1525.73,2547.21c-44.14,50.08-96.96,76.3-153.3,76.3-3.46,0-6.92-.1-10.4-.29-67.6-3.85-134-45.67-182.17-114.74l-.48-.68c-7.69-11.02-15.64-22.42-18.62-35.12-3.85-16.45,1.55-31,16.06-43.28,11.63-9.84,23.41-14.1,35.02-12.7,20.24,2.47,33.47,20.76,45.15,36.91,3.82,5.28,7.44,10.28,10.83,14,37.05,40.84,72.86,61.49,106.52,61.49,2.21,0,4.41-.09,6.6-.27,33.48-2.71,65.06-26.63,93.84-71.07,2.7-4.17,5.98-10.69,9.46-17.61,11.35-22.58,24.22-48.18,44.02-52.76,3.9-.9,7.88-1.34,11.85-1.34,11.5,0,22.91,3.7,32.04,10.64,11.06,8.41,17.49,20.51,18.09,34.07,1.31,29.84-54.67,105.28-64.51,116.45Z"/><path d="M2092.13,1730.79c-10.75,8.81-25.04,11.29-39.65,11.29-10.2,0-20.55-1.21-29.98-2.31-6.4-.75-12.45-1.45-17.39-1.65-8.4-.32-18.27-.31-28.73-.31-23.11.04-49.3.06-68.14-3.75-22-4.44-36.87-23.66-36.18-46.74.61-20.36,14.2-42.72,43.19-46.78l1.11-.16,1.14.05,150.02,6.77.98.21c19.67,4.14,35.32,18.82,39.85,37.39,4.17,17.07-1.89,34.27-16.2,45.99Z"/></svg>