<svg xmlns="http://www.w3.org/2000/svg" xmlns:xlink="http://www.w3.org/1999/xlink" viewBox="0 0 690.69 659.18"><defs><style>.cls-1,.cls-4{fill:none;}.cls-2{clip-path:url(#clip-path);}.cls-3{fill:#89be9f;}.cls-4{stroke:#fff;stroke-miterlimit:10;stroke-width:10px;}.cls-5{fill:#55917f;}.cls-6{fill:#a9dac8;}.cls-7{fill:#e1edc4;}.cls-8{fill:#8dc28c;}</style><clipPath id="clip-path" transform="translate(-165.22 -170.41)"><rect class="cls-1" width="1000" height="1000"/></clipPath></defs><g id="Layer_2" data-name="Layer 2"><g id="Layer_1-2" data-name="Layer 1"><g class="cls-2"><path class="cls-3" d="M791.07,824h-561a60,60,0,0,1-59.84-59.84V235.25a60,60,0,0,1,59.84-59.84h561a60,60,0,0,1,59.84,59.84V764.13A60,60,0,0,1,791.07,824" transform="translate(-165.22 -170.41)"/><rect class="cls-4" x="5" y="5" width="680.69" height="648.56" rx="59.84"/><path class="cls-5" d="M510.56,564.4H170.22V241.9a66.49,66.49,0,0,1,66.49-66.49H510.56Z" transform="translate(-165.22 -170.41)"/><path class="cls-4" d="M510.56,564.4H170.22V241.9a66.49,66.49,0,0,1,66.49-66.49H510.56Z" transform="translate(-165.22 -170.41)"/><path class="cls-6" d="M850.91,509.86H505V175.41h286a60,60,0,0,1,59.84,59.84Z" transform="translate(-165.22 -170.41)"/><path class="cls-4" d="M850.91,509.86H505V175.41h286a60,60,0,0,1,59.84,59.84Z" transform="translate(-165.22 -170.41)"/><path class="cls-7" d="M791.07,824.59h-230V464H850.91V764.75a60,60,0,0,1-59.84,59.84" transform="translate(-165.22 -170.41)"/><path class="cls-4" d="M791.07,824.59h-230V464H850.91V764.75A60,60,0,0,1,791.07,824.59Z" transform="translate(-165.22 -170.41)"/><path class="cls-3" d="M701.91,707.84c0,44.11-37.36,79.88-83.45,79.88S535,752,535,707.84,572.37,628,618.46,628s83.45,35.76,83.45,79.87" transform="translate(-165.22 -170.41)"/><ellipse class="cls-4" cx="453.24" cy="537.43" rx="83.45" ry="79.88"/><path class="cls-7" d="M605.92,509.86c0,48.76-41.3,88.29-92.25,88.29s-92.25-39.53-92.25-88.29,41.3-88.3,92.25-88.3,92.25,39.54,92.25,88.3" transform="translate(-165.22 -170.41)"/><path class="cls-6" d="M529.51,303.54c0,44.11-37.36,79.87-83.45,79.87s-83.46-35.76-83.46-79.87,37.37-79.88,83.46-79.88,83.45,35.76,83.45,79.88" transform="translate(-165.22 -170.41)"/><ellipse class="cls-4" cx="280.84" cy="133.12" rx="83.45" ry="79.88"/><rect class="cls-3" x="288.72" y="520.49" width="102.17" height="127.06"/><rect class="cls-6" x="345.34" y="29.7" width="102.17" height="127.05"/><path class="cls-5" d="M383.74,617.1c0,44.11-37.37,79.87-83.45,79.87s-83.46-35.76-83.46-79.87,37.37-79.88,83.46-79.88S383.74,573,383.74,617.1" transform="translate(-165.22 -170.41)"/><ellipse class="cls-4" cx="135.07" cy="446.69" rx="83.45" ry="79.88"/><rect class="cls-5" x="63.99" y="286.79" width="127.05" height="102.17"/><path class="cls-8" d="M582.66,554.28a87.14,87.14,0,1,1-.9-90.32H689.13c-20.47-81.15-93.94-141.22-181.44-141.22-103.34,0-187.12,83.78-187.12,187.12S404.35,697,507.69,697a187.19,187.19,0,0,0,181.8-142.69Z" transform="translate(-165.22 -170.41)"/><path class="cls-4" d="M582.66,554.28a87.14,87.14,0,1,1-.9-90.32H689.13c-20.47-81.15-93.94-141.22-181.44-141.22-103.34,0-187.12,83.78-187.12,187.12S404.35,697,507.69,697a187.19,187.19,0,0,0,181.8-142.69Z" transform="translate(-165.22 -170.41)"/></g></g></g></svg>