<?xml version="1.0" encoding="UTF-8"?><svg id="Layer_1" xmlns="http://www.w3.org/2000/svg" viewBox="0 0 3000 3000"><path d="M2493.31,1353.92c4,3.96,11.08,5.86,15.66,10.86,48.83,53.31-66.41,103.83-95.66,132.02-6.13,30.7,1.72,70.23-16.22,97.23-19.99,30.07-23.3,55.79-36.54,89.72-6.09,15.61-19.16,35.69-23.45,49.78-6.92,22.78-8.06,52.94-15.11,78.32-20.51,73.8-63.84,136.98-119.91,188.18-7.78,7.1-34.21,23.95-38.08,30.1-5.58,8.88-13.16,43.08-20.34,57.94-194.3,402.37-737.24,638.04-1132.87,373.36-114.84-76.83-243.71-230.81-277.35-366.59-3.91-15.77,3.12-9.89-8.71-21.49-63.95-62.66-103.84-137.59-108.58-228.66-9.63,2.02-10.87,13.28-19.29,19.82-49.88,38.74-89.82-76.42-99.18-109.69-49.23-175.03-30.82-404.51.49-582.44,31-176.19,97.17-329.18,231.6-450.23,73.46-66.15,174.01-125.72,275.31-127.48-3.68-26.25,22.81-44.71,45.35-28.96l16.45,18.8c129.05-124.87,290.02-192.33,471.99-173.9,384.52,38.95,757.26,409.77,868.42,767.98,7.46,24.04,11.59,55.79,20.78,77.71,7.78,18.54,51.11,83.56,65.27,97.6ZM1598.35,1415.62c-61.44-37.07-110.49-89.95-156.41-144.16-8.92,61.53-18.78,123.46-22.73,185.63-1.05,16.59-2.29,36.54-2.67,52.89-.68,29.35,5.57,66.39,2.37,93.28s-26.09,43.63-51.11,28.95-61.96-81.72-75.28-109.06c-34.82-71.48-59.08-151.15-75.37-228.95-3.64.3-3.95,3.73-5.11,6.23-9.42,20.35-15.94,44.19-25.53,65.38-16.67,36.85-37.39,71.62-57.76,106.46-.04,5.18,38.64,40.16,45.43,48.01,50.94,58.95,84.01,138.1,90.99,215.86,83.79-14.96,169.16-30.28,247.57-64.31,12.16-90.5,41.87-176.56,85.63-256.2ZM1646.5,1448.23c-86.49,151.68-119.85,374.15-2.49,518.87,173.75,214.27,563.62,67.56,624.97-177.94,6.27-25.08,1.58-36.19,3.68-56.88,1.72-16.96,8.57-23.54,7.64-47.92-3.38-88-42.96-184.86-98.53-252.49-5.34-6.5-15.34-19.74-21.38-24.07-13.65-9.8-58.84-15.26-78.11-20.37-57.8-15.33-115.3-32.81-169.83-57.45-12.41-5.61-80.41-43.66-85.19-43.41-9.36.49-17.09,11.64-32.39,9.66-5.07-.65-12.11-7.72-14.19-.43-6.12,43.84,20.75,176.9-44.78,185.02-31.07,3.85-61.97-21.73-89.39-32.6ZM672.05,1809.7c-6.9,196.23,176.58,342.87,364.99,260.19,210.82-92.51,229.36-410.5,55.19-548.43-106.97,134.63-259.95,229.13-420.19,288.24ZM1510.09,1736.13c-39.62,13.67-80.29,24.66-121.17,34.12-39.38,9.11-81.19,18.69-121.26,21.42-.77,152.43-96.28,300.55-244.95,344.71-72.99,21.68-147.01,18.41-217.14-11.36,83.23,199.99,277.7,361.8,496.52,386.05,291.51,32.31,582.44-118.22,737.85-362.53l40.86-68.97c-122.86,57.86-268.43,71.84-389.62,2.01-121.96-70.27-178.97-208.47-181.08-345.44Z"/><path d="M1519.46,2226.56c17.65-4.08,37.63,7.03,38.47,26.19.78,17.7-37.44,73.64-50.3,88.23-85.09,96.52-199.46,66.52-267.32-30.79-11.66-16.72-24.33-34.37-4.23-51.37,29.59-25.03,45.19,13.38,60.6,30.36,64.32,70.87,130.45,75.13,185.16-9.35,9.11-14.06,21.59-49.57,37.62-53.27Z"/><path d="M1835.27,1615.57l121.95,5.5c24.15,5.08,35.64,33.87,15.08,50.71-15.35,12.58-46.03,4.47-64.49,3.75-22.45-.88-56.61,1.12-77.68-3.13-29.73-6-29.47-51.98,5.14-56.83Z"/><path d="M897.72,1722.25c25.5-.01,37.64,30.05,20.33,49.34-4.56,5.08-78.11,57.4-85.48,60.97-29.17,14.16-57.25-16.2-35.92-43.48,7.67-9.81,71.92-55.15,84.79-61.66,5.21-2.64,10.29-5.16,16.29-5.17Z"/></svg>